<svg width="17" height="15" viewBox="0 0 17 15" fill="none" xmlns="http://www.w3.org/2000/svg">
<g clip-path="url(#clip0_3_4555)">
<path d="M16.1865 2.59814C15.6024 2.86028 14.9737 3.03711 14.3141 3.11624C14.9876 2.70919 15.504 2.06442 15.7475 1.29525C15.1176 1.67267 14.4203 1.94654 13.6775 2.09438C13.083 1.45482 12.2357 1.05493 11.2981 1.05493C9.49799 1.05493 8.0385 2.52846 8.0385 4.34618C8.0385 4.60376 8.06721 4.85483 8.12301 5.09613C5.41368 4.95871 3.01141 3.64866 1.40355 1.65737C1.12294 2.14322 0.962317 2.70853 0.962317 3.31227C0.962317 4.45397 1.53773 5.4615 2.41245 6.05156C1.87833 6.0343 1.37549 5.88613 0.935869 5.63962C0.935546 5.6533 0.935546 5.6673 0.935546 5.68131C0.935546 7.27564 2.05927 8.60556 3.55069 8.9084C3.27718 8.9833 2.98915 9.02368 2.69177 9.02368C2.48148 9.02368 2.27731 9.00317 2.0783 8.96442C2.49341 10.2719 3.69713 11.2237 5.12339 11.2501C4.00773 12.1329 2.60243 12.6591 1.07488 12.6591C0.812014 12.6591 0.55237 12.6435 0.297241 12.6129C1.74028 13.5472 3.45361 14.0916 5.29434 14.0916C11.2907 14.0916 14.5693 9.07676 14.5693 4.72751C14.5693 4.58487 14.5664 4.44257 14.5602 4.30124C15.1969 3.83818 15.7498 3.25822 16.1865 2.59814Z" fill="#1E266D"/>
</g>
<defs>
<clipPath id="clip0_3_4555">
<rect width="16" height="15" fill="white" transform="translate(0.287354)"/>
</clipPath>
</defs>
</svg>
