<svg width="17" height="16" viewBox="0 0 17 16" fill="none" xmlns="http://www.w3.org/2000/svg">
<path d="M12.5397 1.36353H3.95623C2.46525 1.36353 1.25226 2.57623 1.25226 4.06721V6.9233V12.651C1.25226 14.142 2.46525 15.3547 3.95623 15.3547H12.54C14.031 15.3547 15.2437 14.142 15.2437 12.651V6.92301V4.06693C15.2434 2.57595 14.0307 1.36353 12.5397 1.36353ZM13.3153 2.97586L13.6246 2.97473V3.28263V5.34624L11.261 5.35386L11.2528 2.98263L13.3153 2.97586ZM6.25097 6.92301C6.69914 6.30297 7.42614 5.89629 8.24797 5.89629C9.0698 5.89629 9.7968 6.30297 10.2444 6.92301C10.5359 7.32772 10.7106 7.82274 10.7106 8.35896C10.7106 9.71673 9.60489 10.8213 8.24769 10.8213C6.88964 10.8213 5.78502 9.71673 5.78502 8.35896C5.7853 7.82274 5.95944 7.32772 6.25097 6.92301ZM13.8803 12.6507C13.8803 13.3904 13.2789 13.9913 12.5397 13.9913H3.95623C3.2168 13.9913 2.61539 13.3904 2.61539 12.6507V6.92301H4.70383C4.52349 7.36667 4.42217 7.85124 4.42217 8.35896C4.42217 10.468 6.13808 12.185 8.24797 12.185C10.3576 12.185 12.0735 10.468 12.0735 8.35896C12.0735 7.85124 11.9716 7.36667 11.7913 6.92301H13.8803V12.6507Z" fill="#1E266D"/>
</svg>
