<svg width="17" height="16" viewBox="0 0 17 16" fill="none" xmlns="http://www.w3.org/2000/svg">
<path d="M8.35242 8.19522C8.41707 8.17378 8.48236 8.15461 8.54799 8.13545C8.42356 7.85378 8.28777 7.57147 8.1458 7.29272C5.59262 8.05748 3.14275 8.00225 3.05504 7.999C3.05341 8.05228 3.05081 8.10361 3.05081 8.15689C3.05081 9.43104 3.5313 10.5921 4.32139 11.4703C4.32074 11.469 4.31944 11.4677 4.31944 11.4677C4.31944 11.4677 5.67676 9.06068 8.35242 8.19522Z" fill="#1E266D"/>
<path d="M7.73451 6.52962C6.87652 5.00467 5.95972 3.7604 5.89377 3.67236C4.51079 4.32536 3.47867 5.59951 3.15704 7.13519C3.28764 7.13648 5.35384 7.16247 7.73451 6.52962Z" fill="#1E266D"/>
<path d="M11.284 4.43577C10.4108 3.66614 9.2643 3.19897 8.00932 3.19897C7.60647 3.19897 7.21565 3.24771 6.84042 3.33802C6.91514 3.43776 7.84688 4.67357 8.69447 6.23102C10.5657 5.52896 11.272 4.45396 11.284 4.43577Z" fill="#1E266D"/>
<path d="M6.82193 3.34302C6.81608 3.34367 6.81121 3.34432 6.80536 3.34692C6.81478 3.34432 6.82063 3.34302 6.82063 3.34302H6.82193Z" fill="#1E266D"/>
<path d="M4.96137 12.0658L4.96234 12.0639C4.92563 12.0353 4.88665 12.0093 4.85059 11.9788C4.91654 12.0324 4.96137 12.0658 4.96137 12.0658Z" fill="#1E266D"/>
<path d="M9.0759 6.96956C9.19123 7.20639 9.30233 7.4468 9.40597 7.6885C9.44203 7.77557 9.47777 7.86036 9.51253 7.94548C11.2162 7.73106 12.8945 8.09199 12.9663 8.10661C12.9549 6.9309 12.5342 5.85232 11.8386 5.00732C11.8289 5.02064 11.0339 6.17004 9.0759 6.96956Z" fill="#1E266D"/>
<path d="M8.85302 8.96808C5.92656 9.9885 4.97144 12.0443 4.96234 12.0638C5.80344 12.7204 6.85928 13.1151 8.009 13.1151C8.69546 13.1151 9.34975 12.9754 9.94492 12.7223C9.87117 12.2889 9.58334 10.7705 8.88518 8.95703C8.87479 8.96125 8.86407 8.9645 8.85302 8.96808Z" fill="#1E266D"/>
<path d="M8.00934 0.157227C3.59106 0.157227 0.00933838 3.7396 0.00933838 8.15723C0.00933838 12.5755 3.59074 16.1566 8.00934 16.1566C12.4276 16.1566 16.0093 12.5755 16.0093 8.15723C16.0093 3.7396 12.4273 0.157227 8.00934 0.157227ZM13.3587 10.4174C13.2135 10.7621 13.0332 11.0938 12.8233 11.4034C12.6157 11.711 12.3773 11.9998 12.1144 12.2626C11.8516 12.5248 11.5631 12.7633 11.2558 12.9715C10.9455 13.1811 10.6129 13.361 10.2692 13.5069C9.91829 13.6547 9.55151 13.7684 9.17856 13.8451C8.79586 13.9237 8.40243 13.9637 8.00901 13.9637C7.61559 13.9637 7.22217 13.9237 6.83947 13.8451C6.46652 13.7684 6.09908 13.6547 5.74887 13.5069C5.40451 13.361 5.07216 13.1807 4.76191 12.9715C4.4549 12.7633 4.16576 12.5248 3.90327 12.2626C3.64044 11.9998 3.40199 11.7113 3.19439 11.4034C2.98485 11.0938 2.80487 10.7617 2.659 10.4174C2.51086 10.0665 2.39683 9.69972 2.32016 9.32612C2.24252 8.94342 2.20288 8.55065 2.20288 8.15723C2.20288 7.7638 2.24252 7.37038 2.32016 6.98833C2.39683 6.61473 2.51086 6.2473 2.659 5.89708C2.80487 5.55239 2.98518 5.22005 3.19439 4.91012C3.40199 4.60247 3.64044 4.3143 3.90327 4.05083C4.16576 3.78866 4.45458 3.55085 4.76191 3.34261C5.07216 3.13274 5.40451 2.95243 5.74887 2.80657C6.09908 2.6581 6.46652 2.54439 6.83947 2.46837C7.22217 2.3904 7.61559 2.35044 8.00901 2.35044C8.40243 2.35044 8.79586 2.3904 9.17856 2.46837C9.55151 2.54439 9.91829 2.6581 10.2692 2.80657C10.6132 2.95243 10.9455 3.13274 11.2558 3.34261C11.5628 3.55085 11.8516 3.78866 12.1144 4.05083C12.3773 4.3143 12.6157 4.60214 12.8233 4.91012C13.0332 5.21972 13.2135 5.55239 13.3587 5.89708C13.5072 6.2473 13.6209 6.61473 13.6969 6.98833C13.7755 7.37038 13.8155 7.7638 13.8155 8.15723C13.8155 8.55065 13.7755 8.94342 13.6969 9.32612C13.6209 9.69972 13.5075 10.0665 13.3587 10.4174Z" fill="#1E266D"/>
<path d="M9.81497 8.72764C10.4654 10.5151 10.7292 11.9705 10.7802 12.2694C11.8932 11.5183 12.6843 10.3254 12.9045 8.94336C12.8025 8.91054 11.4153 8.47132 9.81497 8.72764Z" fill="#1E266D"/>
</svg>
